<svg width="734" height="546" viewBox="0 0 734 546" fill="none" xmlns="http://www.w3.org/2000/svg">
<g clip-path="url(#clip0_89_140)">
<path d="M713.085 463.863C709.767 437.185 693.233 410.9 667.79 402.218C677.824 429.677 677.822 459.8 667.784 487.258C663.875 497.834 658.425 509.189 662.103 519.847C664.391 526.479 669.988 531.553 676.245 534.726C682.502 537.898 689.447 539.41 696.304 540.892L697.654 542.008C708.539 517.427 716.402 490.542 713.085 463.863Z" fill="#0B4725" fill-opacity="0.5"/>
<path d="M667.538 402.722C682.355 419.324 691.564 440.172 693.857 462.306C694.435 467.062 694.26 471.879 693.338 476.581C692.292 481.132 690.047 485.32 686.835 488.709C683.904 491.93 680.532 494.884 678.435 498.762C677.391 500.762 676.781 502.961 676.647 505.213C676.512 507.466 676.855 509.721 677.653 511.832C679.505 517.143 683.154 521.472 686.87 525.582C690.997 530.144 695.355 534.818 697.108 540.867C697.321 541.6 698.446 541.227 698.234 540.495C695.182 529.971 684.966 523.994 680.094 514.515C677.821 510.092 676.866 504.957 678.998 500.288C680.861 496.205 684.335 493.155 687.331 489.92C690.513 486.659 692.848 482.669 694.132 478.298C695.291 473.658 695.651 468.856 695.198 464.095C694.349 453.362 691.817 442.829 687.696 432.882C683.056 421.503 676.503 411.003 668.322 401.834C667.815 401.266 667.035 402.159 667.538 402.722Z" fill="white"/>
<path d="M693.538 455.135C697.199 454.246 700.425 452.085 702.64 449.037C704.855 445.989 705.914 442.253 705.629 438.496C705.568 437.736 704.385 437.795 704.445 438.556C704.717 442.053 703.73 445.533 701.662 448.367C699.594 451.201 696.581 453.203 693.167 454.01C692.425 454.187 692.801 455.311 693.538 455.135Z" fill="white"/>
<path d="M688.536 487.272C681.924 483.323 677.042 477.028 674.865 469.64C674.65 468.908 673.525 469.28 673.74 470.011C676.02 477.695 681.113 484.236 688.003 488.33C688.66 488.72 689.19 487.659 688.536 487.272Z" fill="white"/>
<path d="M681.957 422.626C680.612 423.265 679.129 423.56 677.642 423.485C676.155 423.409 674.71 422.965 673.436 422.193C672.784 421.795 672.256 422.856 672.903 423.252C674.314 424.098 675.911 424.586 677.554 424.673C679.197 424.76 680.836 424.444 682.328 423.751C682.474 423.698 682.595 423.59 682.665 423.451C682.735 423.312 682.749 423.152 682.705 423.003C682.655 422.854 682.548 422.731 682.408 422.66C682.268 422.59 682.106 422.577 681.957 422.626Z" fill="white"/>
<path d="M590.237 449.868C590.637 450.128 591.037 450.388 591.437 450.658C596.795 454.182 601.859 458.135 606.577 462.478C606.947 462.808 607.317 463.148 607.677 463.488C618.932 474.074 628.125 486.657 634.787 500.598C637.433 506.148 639.652 511.891 641.427 517.778C643.877 525.908 645.887 534.918 650.737 541.568C651.235 542.268 651.776 542.936 652.357 543.568H696.187C696.287 543.518 696.387 543.478 696.487 543.428L698.237 543.508C698.167 543.198 698.087 542.878 698.017 542.568C697.977 542.388 697.927 542.208 697.887 542.028C697.857 541.908 697.827 541.788 697.807 541.678C697.797 541.638 697.787 541.598 697.777 541.568C697.757 541.458 697.727 541.358 697.707 541.258C697.267 539.468 696.813 537.678 696.347 535.888C696.347 535.878 696.347 535.878 696.337 535.868C692.747 522.238 687.987 508.788 681.337 496.488C681.137 496.118 680.937 495.738 680.717 495.368C677.689 489.841 674.214 484.57 670.327 479.608C668.19 476.898 665.917 474.298 663.517 471.818C657.303 465.422 650.122 460.043 642.237 455.878C626.517 447.578 608.317 444.398 591.517 449.468C591.087 449.598 590.667 449.728 590.237 449.868Z" fill="#0B4725" fill-opacity="0.5"/>
<path d="M590.335 450.425C612.161 454.759 632.066 465.861 647.223 482.153C650.548 485.602 653.309 489.554 655.404 493.863C657.308 498.126 658.037 502.822 657.513 507.462C657.112 511.798 656.199 516.187 656.858 520.546C657.229 522.772 658.066 524.894 659.315 526.774C660.563 528.653 662.195 530.248 664.103 531.453C668.779 534.579 674.3 535.838 679.741 536.881C685.783 538.04 692.076 539.148 697.118 542.922C697.729 543.379 698.403 542.404 697.793 541.948C689.021 535.382 677.265 536.76 667.668 532.125C663.189 529.962 659.336 526.437 658.227 521.426C657.257 517.044 658.194 512.517 658.638 508.13C659.216 503.611 658.678 499.019 657.071 494.756C655.203 490.354 652.599 486.302 649.371 482.774C642.231 474.716 633.868 467.83 624.589 462.369C614.033 456.077 602.479 451.638 590.426 449.243C589.68 449.095 589.594 450.278 590.335 450.425Z" fill="white"/>
<path d="M642.651 476.619C645.04 473.705 646.314 470.037 646.247 466.27C646.181 462.503 644.777 458.883 642.287 456.055C641.782 455.484 640.871 456.243 641.378 456.815C643.701 459.444 645.008 462.816 645.063 466.324C645.118 469.832 643.917 473.244 641.677 475.945C641.191 476.532 642.168 477.204 642.651 476.619Z" fill="white"/>
<path d="M658.006 505.29C650.349 506.119 642.661 504.031 636.475 499.443C635.862 498.988 635.188 499.963 635.8 500.417C642.246 505.179 650.252 507.336 658.218 506.456C658.977 506.372 658.761 505.206 658.006 505.29Z" fill="white"/>
<path d="M613.831 457.635C613.142 458.955 612.136 460.084 610.903 460.919C609.67 461.754 608.249 462.27 606.768 462.42C606.008 462.495 606.225 463.66 606.98 463.586C608.616 463.412 610.184 462.841 611.548 461.921C612.913 461.001 614.031 459.761 614.805 458.31C614.89 458.179 614.921 458.021 614.894 457.868C614.866 457.715 614.781 457.578 614.656 457.486C614.526 457.397 614.367 457.363 614.213 457.391C614.058 457.419 613.921 457.507 613.831 457.635Z" fill="white"/>
<path d="M121.461 21.1545C121.461 9.55654 130.863 0.15451 142.461 0.15451H463.656C475.254 0.15451 484.656 9.55653 484.656 21.1545V119.386H470.899H458.5H439.715H142.461C130.863 119.386 121.461 109.983 121.461 98.3855V21.1545Z" fill="#0B4725"/>
<path d="M475.067 107.65H131.049V11.265H400.149C420.011 11.2874 439.054 19.1877 453.099 33.2327C467.144 47.2777 475.044 66.3204 475.067 86.183V107.65Z" fill="#0B4725"/>
<path d="M363.454 192.569C363.454 180.971 354.052 171.569 342.454 171.569H21.2585C9.66052 171.569 0.258514 180.971 0.258514 192.569V290.799H14.0155H30H45.1995H342.454C354.052 290.799 363.454 281.397 363.454 269.799V192.569Z" fill="#3F9263" fill-opacity="0.2"/>
<path d="M329.053 211.944H40.6827V216.956H329.053V211.944Z" fill="#0B4725"/>
<path d="M328.533 229.283H40.6827V234.295H328.533V229.283Z" fill="#3F9263"/>
<path d="M328.251 246.621H40.6827V251.633H328.251V246.621Z" fill="#3F9263"/>
<path d="M241.651 79.2967L223.383 61.0284C220.925 58.5703 219.515 55.2547 219.451 51.7787C219.386 48.3028 220.672 44.9372 223.038 42.3898C225.404 39.8424 228.666 38.3116 232.137 38.1193C235.608 37.9269 239.019 39.088 241.651 41.3585C244.284 39.0884 247.695 37.9276 251.166 38.1201C254.637 38.3126 257.898 39.8433 260.264 42.3906C262.63 44.9378 263.916 48.3031 263.852 51.7788C263.787 55.2546 262.378 58.5702 259.92 61.0284L241.651 79.2967ZM232.88 40.1588C230.63 40.1574 228.43 40.8235 226.559 42.0731C224.687 43.3226 223.228 45.0992 222.367 47.1781C221.506 49.257 221.281 51.5447 221.72 53.7517C222.159 55.9586 223.244 57.9856 224.836 59.576L241.651 76.3919L258.468 59.576C259.525 58.5197 260.364 57.2654 260.937 55.8848C261.509 54.5042 261.804 53.0243 261.805 51.5296C261.805 50.035 261.511 48.5549 260.939 47.174C260.367 45.7931 259.529 44.5383 258.472 43.4815C257.415 42.4246 256.161 41.5863 254.78 41.0145C253.399 40.4428 251.919 40.1487 250.424 40.1491C248.929 40.1495 247.45 40.4444 246.069 41.0169C244.688 41.5894 243.434 42.4284 242.378 43.4858L241.651 44.212L240.925 43.4858C239.87 42.4288 238.615 41.5908 237.235 41.0198C235.854 40.4489 234.374 40.1563 232.88 40.1588Z" fill="white"/>
<path d="M305.332 49.4087C304.769 48.8473 304.006 48.5324 303.211 48.533C302.416 48.5336 301.654 48.8497 301.091 49.4119C300.529 49.9741 300.213 50.7364 300.212 51.5316C300.211 52.3267 300.526 53.0896 301.088 53.6528L305.332 57.8976L309.577 53.6531C309.856 53.3746 310.078 53.0437 310.229 52.6794C310.381 52.3151 310.459 51.9245 310.459 51.5299C310.46 51.1354 310.382 50.7446 310.232 50.38C310.081 50.0154 309.86 49.6842 309.581 49.4052C309.302 49.1261 308.97 48.9049 308.606 48.754C308.241 48.6032 307.85 48.5256 307.456 48.5259C307.061 48.5262 306.671 48.6043 306.306 48.7558C305.942 48.9072 305.611 49.1293 305.332 49.4087Z" fill="white"/>
<path d="M287.871 49.4087C287.309 48.8464 286.545 48.5306 285.75 48.5308C284.954 48.531 284.191 48.8472 283.628 49.4097C283.066 49.9723 282.749 50.7353 282.749 51.5309C282.749 52.3266 283.064 53.0898 283.627 53.6528L287.871 57.8976L292.116 53.6531C292.395 53.3746 292.617 53.0437 292.769 52.6794C292.92 52.3151 292.998 51.9245 292.999 51.5299C292.999 51.1354 292.922 50.7446 292.771 50.38C292.62 50.0154 292.399 49.6842 292.12 49.4052C291.841 49.1261 291.51 48.9049 291.145 48.754C290.78 48.6032 290.39 48.5256 289.995 48.5259C289.601 48.5262 289.21 48.6043 288.846 48.7558C288.481 48.9072 288.15 49.1293 287.871 49.4087Z" fill="white"/>
<path d="M296.993 81.2351C292.524 81.2351 288.155 79.9098 284.439 77.4269C280.723 74.944 277.827 71.4149 276.117 67.286C274.407 63.157 273.959 58.6137 274.831 54.2304C275.703 49.8471 277.855 45.8208 281.015 42.6607C284.175 39.5005 288.202 37.3484 292.585 36.4765C296.968 35.6047 301.512 36.0522 305.641 37.7624C309.769 39.4727 313.299 42.3689 315.781 46.0849C318.264 49.8008 319.59 54.1696 319.59 58.6387C319.583 64.6296 317.2 70.3731 312.964 74.6093C308.728 78.8455 302.984 81.2283 296.993 81.2351ZM296.993 38.0966C292.93 38.0966 288.959 39.3014 285.581 41.5586C282.203 43.8158 279.57 47.024 278.015 50.7776C276.46 54.5312 276.053 58.6615 276.846 62.6463C277.638 66.6311 279.595 70.2913 282.468 73.1642C285.341 76.0371 289.001 77.9935 292.986 78.7862C296.97 79.5788 301.101 79.172 304.854 77.6172C308.608 76.0624 311.816 73.4295 314.073 70.0513C316.331 66.6732 317.535 62.7016 317.535 58.6387C317.535 55.9411 317.004 53.2699 315.972 50.7776C314.939 48.2853 313.426 46.0207 311.519 44.1132C309.611 42.2057 307.347 40.6926 304.854 39.6603C302.362 38.6279 299.691 38.0966 296.993 38.0966Z" fill="white"/>
<path d="M352.457 81.2351C347.988 81.2351 343.619 79.9098 339.903 77.4269C336.187 74.944 333.291 71.4149 331.581 67.286C329.87 63.157 329.423 58.6137 330.295 54.2304C331.167 49.8471 333.319 45.8208 336.479 42.6607C339.639 39.5005 343.665 37.3484 348.049 36.4765C352.432 35.6047 356.975 36.0522 361.104 37.7624C365.233 39.4727 368.762 42.3689 371.245 46.0849C373.728 49.8008 375.053 54.1696 375.053 58.6387C375.047 64.6296 372.664 70.3731 368.428 74.6093C364.191 78.8455 358.448 81.2283 352.457 81.2351ZM352.457 38.0966C348.394 38.0966 344.423 39.3014 341.044 41.5586C337.666 43.8158 335.033 47.024 333.479 50.7776C331.924 54.5312 331.517 58.6615 332.31 62.6463C333.102 66.6311 335.059 70.2913 337.932 73.1642C340.804 76.0371 344.465 77.9935 348.45 78.7862C352.434 79.5788 356.565 79.172 360.318 77.6172C364.072 76.0624 367.28 73.4295 369.537 70.0513C371.794 66.6732 372.999 62.7016 372.999 58.6387C372.999 55.9411 372.468 53.2699 371.436 50.7776C370.403 48.2853 368.89 46.0207 366.983 44.1132C365.075 42.2057 362.81 40.6926 360.318 39.6603C357.826 38.6279 355.155 38.0966 352.457 38.0966Z" fill="white"/>
<path d="M361.701 56.5845C364.537 56.5845 366.837 54.2853 366.837 51.449C366.837 48.6127 364.537 46.3134 361.701 46.3134C358.865 46.3134 356.566 48.6127 356.566 51.449C356.566 54.2853 358.865 56.5845 361.701 56.5845Z" fill="white"/>
<path d="M344.24 56.5845C347.077 56.5845 349.376 54.2853 349.376 51.449C349.376 48.6127 347.077 46.3134 344.24 46.3134C341.404 46.3134 339.105 48.6127 339.105 51.449C339.105 54.2853 341.404 56.5845 344.24 56.5845Z" fill="white"/>
<path d="M346.055 62.7472C343.96 77.2444 360.589 80.185 358.925 62.7466C359.024 62.7348 346.725 62.7561 346.055 62.7472Z" fill="white"/>
<path d="M289.08 65.756C293.776 72.07 301.896 72.637 306.237 65.756H289.08Z" fill="white"/>
<path d="M583.85 532.633H571.59L565.758 485.345H583.852L583.85 532.633Z" fill="#9E616A"/>
<path d="M586.976 544.517L547.445 544.515V544.015C547.445 539.935 549.067 536.021 551.952 533.136C554.838 530.25 558.751 528.629 562.832 528.629H562.833L586.977 528.63L586.976 544.517Z" fill="#1E1E1E"/>
<path d="M491.473 532.23L479.665 528.931L486.772 481.818L504.199 486.687L491.473 532.23Z" fill="#9E616A"/>
<path d="M491.286 544.517L453.213 533.878L453.348 533.397C454.446 529.467 457.061 526.134 460.616 524.131C464.172 522.129 468.377 521.62 472.307 522.718L472.308 522.718L495.561 529.216L491.286 544.517Z" fill="#1E1E1E"/>
<path d="M554.846 136.508C569.659 136.508 581.667 124.5 581.667 109.687C581.667 94.8746 569.659 82.8665 554.846 82.8665C540.033 82.8665 528.025 94.8746 528.025 109.687C528.025 124.5 540.033 136.508 554.846 136.508Z" fill="#9E616A"/>
<path d="M567.541 243.937L569.667 258.492C569.667 258.492 596.487 311.807 567.377 337.973C567.377 337.973 523.875 469.161 511.446 486.824L501.053 508.568L481.053 505.568L493.456 430.892L514.389 324.236L517.497 240.993C517.497 240.993 563.289 237.722 567.541 243.937Z" fill="#1E1E1E"/>
<path d="M562.471 334.684L577.19 418.117C577.19 418.117 585.04 456.386 585.694 471.105C586.348 485.824 588.965 504.795 588.965 504.795L562.471 509.047L536.304 396.83L562.471 334.684Z" fill="#1E1E1E"/>
<path d="M584.053 171.568L582.148 220.135L572.087 242.39L568.358 250.642L514.389 249.988L519.95 212.373C512.1 192.094 530.744 183.917 530.744 183.917L546.444 167.186L545.053 145.568L568.685 141.069C580.984 138.727 575.053 156.568 575.053 156.568C591.408 154.933 584.053 171.568 584.053 171.568Z" fill="#0B4725"/>
<path d="M475.904 217.568C476.092 217.27 475.601 216.622 474.807 216.119C474.013 215.616 473.217 215.45 473.028 215.748C472.84 216.045 473.331 216.694 474.125 217.197C474.919 217.7 475.715 217.866 475.904 217.568Z" fill="#1E1E1E"/>
<path d="M473.117 212.028C473.326 211.698 473.598 211.412 473.918 211.187C474.237 210.962 474.598 210.802 474.98 210.716C475.361 210.63 475.756 210.621 476.141 210.687C476.527 210.754 476.895 210.896 477.225 211.106L514.96 235.001C515.291 235.21 515.577 235.483 515.802 235.802C516.027 236.122 516.187 236.483 516.273 236.865C516.358 237.246 516.368 237.641 516.301 238.026C516.234 238.411 516.092 238.78 515.883 239.11L473.117 212.028Z" fill="#0B4725"/>
<path d="M469.548 213.292L470.736 211.417C471.024 210.961 471.482 210.639 472.009 210.521C472.535 210.402 473.087 210.498 473.543 210.787L516.508 237.994C517.048 238.336 517.43 238.879 517.57 239.502C517.71 240.126 517.597 240.779 517.255 241.319L516.268 242.877L469.548 213.292Z" fill="#1E1E1E"/>
<path d="M475.945 214.322L475.49 215.041L478.365 216.861L478.82 216.142L475.945 214.322Z" fill="#D0CDE1"/>
<path d="M479.898 216.825L479.443 217.544L482.318 219.365L482.774 218.646L479.898 216.825Z" fill="#D0CDE1"/>
<path d="M509.935 222.822C510.397 223.127 510.834 223.468 511.242 223.842L559.417 212.067L562.81 200.507L580.926 203.347L576.908 224.396C576.584 226.097 575.716 227.646 574.436 228.811C573.156 229.977 571.533 230.696 569.809 230.86L513.642 236.214C512.709 238.13 511.214 239.717 509.357 240.763C507.499 241.809 505.367 242.265 503.245 242.07C501.122 241.875 499.109 241.038 497.473 239.671C495.838 238.304 494.657 236.471 494.089 234.417C493.52 232.363 493.59 230.184 494.29 228.17C494.99 226.157 496.286 224.404 498.007 223.145C499.727 221.887 501.79 221.181 503.921 221.124C506.051 221.066 508.149 221.658 509.935 222.822Z" fill="#9E616A"/>
<path d="M557.957 209.677C557.619 209.126 557.403 208.509 557.325 207.867C557.247 207.225 557.309 206.574 557.506 205.958L564.373 165.441C564.904 162.176 566.709 159.254 569.392 157.317C572.074 155.379 575.416 154.585 578.683 155.108C581.95 155.631 584.877 157.428 586.821 160.106C588.765 162.783 589.568 166.123 589.053 169.391L588.724 211.048C588.714 211.694 588.566 212.331 588.288 212.915C588.01 213.499 587.61 214.016 587.114 214.431C586.618 214.847 586.039 215.15 585.415 215.321C584.792 215.493 584.138 215.527 583.5 215.423L561.069 211.766C560.43 211.662 559.822 211.422 559.285 211.061C558.748 210.701 558.295 210.229 557.957 209.677Z" fill="#0B4725"/>
<path d="M567.553 76.5682C562.428 76.5615 557.397 77.9438 552.994 80.5682H551.053C543.893 80.5682 537.025 83.4128 531.962 88.4763C526.898 93.5398 524.053 100.407 524.053 107.568H539.053V139.568H596.053V105.068C596.053 97.5095 593.051 90.2604 587.706 84.9156C582.361 79.5709 575.112 76.5682 567.553 76.5682Z" fill="#1E1E1E"/>
<path d="M732.551 545.846H317.257C317.1 545.846 316.945 545.816 316.8 545.756C316.655 545.696 316.524 545.609 316.413 545.498C316.302 545.387 316.214 545.256 316.154 545.111C316.094 544.967 316.063 544.811 316.063 544.655C316.063 544.498 316.094 544.343 316.154 544.198C316.214 544.054 316.302 543.922 316.413 543.812C316.524 543.701 316.655 543.613 316.8 543.554C316.945 543.494 317.1 543.464 317.257 543.464H732.551C732.707 543.464 732.863 543.494 733.008 543.554C733.152 543.613 733.284 543.701 733.395 543.812C733.506 543.922 733.594 544.054 733.654 544.198C733.714 544.343 733.745 544.498 733.745 544.655C733.745 544.811 733.714 544.967 733.654 545.111C733.594 545.256 733.506 545.387 733.395 545.498C733.284 545.609 733.152 545.696 733.008 545.756C732.863 545.816 732.707 545.846 732.551 545.846Z" fill="#3F9263"/>
</g>
<defs>
<clipPath id="clip0_89_140">
<rect width="733.483" height="545.691" fill="white" transform="translate(0.258514 0.15451)"/>
</clipPath>
</defs>
</svg>
