<svg width="50" height="53" viewBox="0 0 50 53" fill="none" xmlns="http://www.w3.org/2000/svg">
<path d="M34.7085 43.3181C35.8721 41.753 36.9129 40.1399 37.3198 38.206C37.9627 35.1513 37.1533 32.4494 35.3258 30.0565C34.0716 28.4141 32.3491 27.4706 30.588 26.6152C27.1929 24.9661 23.606 23.8694 20.0875 22.5749C17.6675 21.6846 15.2543 20.7699 13.0204 19.4052C11.815 18.6688 10.6958 17.8252 9.76667 16.6424C9.05 18.3133 8.89467 20.0197 9.13501 21.8945C6.34103 19.8242 4.20992 17.2515 3.08408 13.9442C1.65686 9.7516 1.47965 5.44373 2.69239 1.16436C3.29771 2.29308 3.83077 3.4633 4.5135 4.52542C6.20781 7.16125 8.55303 9.05203 11.0903 10.6882C13.7761 12.4202 16.6606 13.6922 19.6386 14.7367C19.7764 14.785 19.919 14.8178 20.1017 14.7561C19.9374 14.6725 19.7732 14.5886 19.6088 14.5055C17.0841 13.2283 14.715 11.7068 12.7342 9.57777C10.4946 7.17054 9.17261 4.28794 8.76314 0.935997C8.73196 0.68077 8.73081 0.421421 8.70608 0C8.9528 0.319173 9.107 0.513628 9.25614 0.712348C11.5885 3.82011 14.4528 6.29633 17.626 8.34491C20.8937 10.4545 24.2377 12.4336 27.5774 14.4146C31.1518 16.5347 34.7736 18.569 38.0465 21.2067C40.3161 23.0357 42.3687 25.089 43.8021 27.746C45.6235 31.1221 45.849 34.6983 45.1069 38.4502C43.9939 44.078 40.665 47.6997 35.9435 50.1003C33.0875 51.5525 30.0533 52.2907 26.8974 52.4912C26.7154 52.5027 26.5344 52.5311 26.2557 52.5627C26.3833 52.3874 26.4536 52.2634 26.548 52.1654C28.1903 50.4602 29.8584 48.7822 31.4722 47.0473C32.5819 45.8543 33.617 44.5833 34.7085 43.3181Z" fill="url(#paint0_linear_86_8)"/>
<path d="M9.00862 29.7883C11.217 28.4579 13.4987 28.1673 15.9722 28.9376C15.1784 29.1381 14.4443 29.2529 13.7572 29.5093C10.7706 30.6237 9.43401 33.5603 10.3608 36.9436C11.1666 39.8852 12.964 42.0317 15.3304 43.6721C17.979 45.5082 20.9229 46.3282 24.0736 46.3615C24.2697 46.3635 24.4659 46.3617 24.6916 46.3617C24.6916 48.5119 24.6916 50.605 24.6916 52.7793C24.208 52.7793 23.7304 52.793 23.2537 52.7771C19.6031 52.6556 16.085 51.9338 12.8112 50.1402C8.87425 47.9834 6.04815 44.8153 4.87545 40.1894C4.11952 37.2075 4.66887 34.4633 6.51637 32.0952C7.20291 31.2152 8.14848 30.5623 9.00862 29.7883Z" fill="#3F9263"/>
<path d="M27.2261 35.0058C27.4366 34.1208 27.9419 33.6342 28.6241 33.6207C29.2372 33.6086 29.8202 34.0732 30.0012 34.7182C30.2317 35.5394 29.7901 36.3494 28.9733 36.6041C28.2884 36.8176 27.5079 36.3392 27.2996 35.568C27.2543 35.4006 27.2474 35.2216 27.2261 35.0058Z" fill="#0B4725"/>
<path d="M18.5153 36.6553C17.2783 36.3593 16.7646 35.1389 17.4532 34.226C17.8602 33.6864 18.4761 33.49 19.0615 33.7129C19.6041 33.9196 20.0011 34.5261 19.9991 35.1456C19.9971 35.8026 19.6121 36.3553 18.9939 36.5695C18.8538 36.6181 18.702 36.629 18.5153 36.6553Z" fill="#0B4725"/>
<path d="M22.4343 35.9796C22.0478 35.1088 22.1581 34.4494 22.7469 33.9505C23.2584 33.5172 23.9417 33.5106 24.454 33.9341C25.0874 34.4576 25.2146 35.4175 24.7353 36.0554C24.2056 36.7603 23.302 36.8445 22.6586 36.2461C22.584 36.1767 22.5229 36.091 22.4343 35.9796Z" fill="#0B4725"/>
<defs>
<linearGradient id="paint0_linear_86_8" x1="-6.5" y1="-6.5" x2="38.1298" y2="45.2312" gradientUnits="userSpaceOnUse">
<stop stop-color="#F2F3D9"/>
<stop offset="1" stop-color="#3F9263"/>
</linearGradient>
</defs>
</svg>
