<svg width="25" height="25" viewBox="0 0 25 25" fill="none" xmlns="http://www.w3.org/2000/svg">
<path d="M17.6723 4.23482L19.6405 2.26548C20.0508 1.85519 20.6073 1.62469 21.1875 1.62469C21.7677 1.62469 22.3242 1.85519 22.7345 2.26548C23.1448 2.67577 23.3753 3.23225 23.3753 3.81248C23.3753 4.39272 23.1448 4.94919 22.7345 5.35948L10.3457 17.7483C9.72888 18.3647 8.96826 18.8178 8.1325 19.0666L5 20L5.93333 16.8675C6.18216 16.0317 6.63524 15.2711 7.25167 14.6543L17.6723 4.23482ZM17.6723 4.23482L20.75 7.31248M19 15.3333V20.875C19 21.5712 18.7234 22.2389 18.2312 22.7311C17.7389 23.2234 17.0712 23.5 16.375 23.5H4.125C3.42881 23.5 2.76113 23.2234 2.26884 22.7311C1.77656 22.2389 1.5 21.5712 1.5 20.875V8.62498C1.5 7.92879 1.77656 7.26111 2.26884 6.76883C2.76113 6.27654 3.42881 5.99998 4.125 5.99998H9.66667" stroke="#0B4725" stroke-width="2" stroke-linecap="round" stroke-linejoin="round"/>
</svg>
