<svg width="28" height="28" viewBox="0 0 28 28" fill="none" xmlns="http://www.w3.org/2000/svg">
<path d="M19.6723 5.23485L21.6405 3.26551C22.0508 2.85522 22.6073 2.62473 23.1875 2.62473C23.7677 2.62473 24.3242 2.85522 24.7345 3.26551C25.1448 3.6758 25.3753 4.23228 25.3753 4.81251C25.3753 5.39275 25.1448 5.94922 24.7345 6.35951L12.3457 18.7483C11.7289 19.3648 10.9683 19.8179 10.1325 20.0667L7 21L7.93333 17.8675C8.18216 17.0318 8.63524 16.2711 9.25167 15.6543L19.6723 5.23485ZM19.6723 5.23485L22.75 8.31251M21 16.3333V21.875C21 22.5712 20.7234 23.2389 20.2312 23.7312C19.7389 24.2235 19.0712 24.5 18.375 24.5H6.125C5.42881 24.5 4.76113 24.2235 4.26884 23.7312C3.77656 23.2389 3.5 22.5712 3.5 21.875V9.62501C3.5 8.92882 3.77656 8.26114 4.26884 7.76886C4.76113 7.27658 5.42881 7.00001 6.125 7.00001H11.6667" stroke="#0B4725" stroke-width="2" stroke-linecap="round" stroke-linejoin="round"/>
</svg>
